<svg xmlns="http://www.w3.org/2000/svg" xmlns:xlink="http://www.w3.org/1999/xlink" viewBox="200 0 176.63 124.62">
<defs>
<clipPath id="clippath">
<path d="m245.48,58.55c.32-28.51,15.16-37.43,23.23-37.43,11.28,0,15.94,8.61,16.71,12.43.76,3.81,5.03,6.86,6.4.61,1.37-6.25,14.65-25.31,30.96-25.31,14.94,0,20.12,15.41,19.67,28.52-1.22,35.68-47.19,64.15-53.24,82.14-5.39-10.89-44.12-26.63-43.74-60.94Z" style="fill:none;"></path>
</clipPath>
</defs>
<g style="isolation:isolate;">
<g id="Layer_2">
<g id="logo">
<g>
<g style="clip-path:url(#clippath);">
<g style="mix-blend-mode:multiply;">
<polygon points="349.04 -13.71 285.82 6 240 4.44 234.43 66.3 245.02 126.18 346.81 121.4 349.04 -13.71" style="fill:#f8d507;"></polygon>
<polygon points="295.53 53.95 361.02 46.78 358.15 -15.19 295.53 -3.22 295.53 53.95" style="fill:#1d72b3;"></polygon>
<polygon points="240.19 79.6 240.19 117.07 276.07 123.4 276.07 75.54 240.19 79.6" style="fill:#1d72b3;"></polygon>
<polygon points="295.53 121.35 361.02 103.78 361.02 66.31 295.53 73.49 295.53 121.35" style="fill:#1d72b3;"></polygon>
<polygon points="276.07 -1.17 240.19 17.85 240.19 60.07 276.07 56.01 276.07 -1.17" style="fill:#1d72b3;"></polygon>
</g>
</g>
<path d="m328.12,0c-13.42,0-29.29,9.91-38.89,26.38-2.59-5.95-11.83-12.43-22.8-12.43-8.84,0-33.67,11.05-33.67,46.73,0,46.05,46.59,55.51,56.01,69.82.65.99,2.73,1.73,3.53-.62,7.51-22.18,65.79-47.24,65.79-92.37,0-25.31-16.53-37.51-29.95-37.51Zm-82.64,58.55c.32-28.51,15.16-37.43,23.23-37.43,11.28,0,15.94,8.61,16.71,12.43.76,3.81,5.03,6.86,6.4.61,1.37-6.25,14.65-25.31,30.96-25.31,14.94,0,20.12,15.41,19.67,28.52-1.22,35.68-47.19,64.15-53.24,82.14-5.39-10.89-44.12-26.63-43.74-60.94Z" style="fill:#fff;"></path>
</g>
</g>
</g>
</g>
</svg>