<svg xmlns="http://www.w3.org/2000/svg" viewBox="200 0 176.63 132.62">
  <path d="m0 17.128-16.377 1.721v16.377l-14.037 1.476V20.325l-16.377 1.721V8.009l16.377-1.722V-10.09l14.037-1.475V4.812L0 3.091zm8.812-63.889c-16.315 0-29.59 19.061-30.963 25.312-1.372 6.251-5.643 3.203-6.404-.609-.762-3.814-5.423-12.428-16.706-12.428-8.08 0-22.917 8.923-23.235 37.433-.38 34.309 38.354 50.051 43.74 60.942 6.051-17.981 52.015-46.457 53.237-82.135.448-13.107-4.727-28.515-19.669-28.515" style="fill:red;fill-rule:nonzero" transform="translate(313.976 55.603)"/>
  <path d="m0-48.267-14.037 1.475v16.377l-16.377 1.722v14.037l16.377-1.721V0L0-1.476v-16.377l16.377-1.721v-14.037L0-31.89z" style="fill:#f9f9f9;fill-rule:nonzero" transform="translate(297.599 92.305)"/>
  <path d="M0-57.516C-1.222-21.838-47.186 6.638-53.236 24.619c-5.387-10.891-44.121-26.633-43.741-60.942.318-28.51 15.155-37.433 23.235-37.433 11.284 0 15.944 8.614 16.706 12.428.761 3.812 5.032 6.86 6.404.609 1.373-6.251 14.649-25.312 30.963-25.312C-4.727-86.031.448-70.623 0-57.516m-14.332-37.357c-13.418 0-29.287 9.91-38.892 26.379-2.592-5.948-11.826-12.429-22.803-12.429-8.845 0-33.673 11.055-33.673 46.735 0 46.048 46.588 55.506 56.006 69.817.647.985 2.732 1.728 3.527-.624 7.515-22.179 65.787-47.236 65.787-92.369 0-25.311-16.534-37.509-29.952-37.509" style="fill:#fff;fill-rule:nonzero" transform="translate(342.457 94.873)"/>
</svg>
