<?xml version="1.0" encoding="UTF-8"?>
<svg id="Layer_2" data-name="Layer 2" xmlns="http://www.w3.org/2000/svg" viewBox="0 0 1185.52 514.72">
  <defs>
    <style>
      .cls-1 {
        fill: none;
      }

      .cls-2 {
        fill: #ef3340;
      }

      .cls-3 {
        fill: #fff;
      }

      .cls-4 {
        fill: #f7f7f7;
      }
    </style>
  </defs>
  <g id="Layer_1-2" data-name="Layer 1">
    <g>
      <g>
        <path class="cls-2" d="M583.01,211.04c-4.41-8.56-13.01-16.04-22.96-24.69-20.15-17.52-45.22-39.32-45.22-82.21,0-34.26,20.61-52.75,40-52.75,12.77,0,23.21,7.76,28.17,20.6,10.43-30.4,35.75-44.31,55.79-44.31,10.97,0,20.9,4.03,27.94,11.35,7.71,8.01,11.78,19.64,11.78,33.62,0,25.74-23.14,51.34-45.51,76.1-18.65,20.64-37.94,41.98-40.6,60.69l-2.21,15.54-7.19-13.96Z"/>
        <path class="cls-4" d="M677.95,79.7l-162.77,17.11c-.22,2.36-.34,4.8-.34,7.34,0,22.79,7.08,39.62,16.74,53.02l103.69-10.9c19.6-21.72,39.17-44.07,42.69-66.57Z"/>
      </g>
      <g>
        <path class="cls-3" d="M317.82,500.36l13.2-40.42c.17-.58.5-.83,1.08-.83h12.61c.58,0,.75.25.58.75l-18.59,53.28c-.17.5-.5.75-1.08.75h-15.6c-.58,0-.91-.25-1.08-.75l-14.61-41.91h-8.38c-4.81,0-8.13,2.74-8.13,6.81s3.57,7.63,8.22,7.63c.58,0,1.33-.08,2.41-.25.58-.08.83.08.83.66v8.63c0,.58-.25.91-.83,1-1.16.25-2.66.42-3.98.42-11.2,0-19.09-7.72-19.09-18.67s7.72-18.34,18.76-18.34h19.42c.58,0,.91.25,1.08.83l13.2,40.42Z"/>
        <path class="cls-3" d="M363.39,459.94c0-.58.25-.83.83-.83h11.62c.58,0,.83.25.83.83v53.12c0,.58-.25.83-.83.83h-11.62c-.58,0-.83-.25-.83-.83v-53.12Z"/>
        <path class="cls-3" d="M399.91,459.94c0-.58.25-.83.83-.83h34.36c.58,0,.83.25.83.83v10.46c0,.58-.25.83-.83.83h-23.16v9.13h19.84c.58,0,.83.25.83.83v10.46c0,.58-.25.83-.83.83h-19.84v9.29h23.98c.58,0,.83.25.83.83v10.46c0,.58-.25.83-.83.83h-35.19c-.58,0-.83-.25-.83-.83v-53.12Z"/>
        <path class="cls-3" d="M491.62,513.89c-.58,0-.83-.25-.83-.83v-13.44l-20.25-20.33v33.78c0,.58-.25.83-.83.83h-11.62c-.58,0-.83-.25-.83-.83v-53.12c0-.58.25-.83.83-.83h9.13c.58,0,1,.17,1.41.58l22.16,22.74v-22.49c0-.58.25-.83.83-.83h11.62c.58,0,.83.25.83.83v53.12c0,.58-.25.83-.83.83h-11.62Z"/>
        <path class="cls-3" d="M561.67,513.89c-.58,0-.83-.25-.83-.83v-13.44l-20.25-20.33v33.78c0,.58-.25.83-.83.83h-11.62c-.58,0-.83-.25-.83-.83v-53.12c0-.58.25-.83.83-.83h9.13c.58,0,1,.17,1.41.58l22.16,22.74v-22.49c0-.58.25-.83.83-.83h11.62c.58,0,.83.25.83.83v53.12c0,.58-.25.83-.83.83h-11.62Z"/>
        <path class="cls-3" d="M611.64,459.86c.17-.5.5-.75,1.08-.75h15.6c.58,0,.91.25,1.08.75l18.59,53.28c.17.5,0,.75-.58.75h-12.37c-.58,0-.91-.25-1.08-.83l-3.49-10.71h-19.92l-3.49,10.71c-.17.58-.5.83-1.08.83h-12.37c-.58,0-.75-.25-.58-.75l18.59-53.28ZM626.5,490.23l-5.97-18.42-5.98,18.42h11.95Z"/>
        <path class="cls-3" d="M694.22,506c0-16.76,26.31-20.91,26.31-30.46,0-2.9-2.41-4.81-6.06-4.81s-6.22,2.16-6.56,5.89c0,.58-.25.83-.83.83h-11.62c-.58,0-.83-.25-.83-.83.42-10.87,8.3-18.34,19.75-18.34s19.42,6.89,19.42,16.85c0,15.19-18.51,20.58-23.32,26.72h22.91c.58,0,.83.25.83.83v10.37c0,.58-.25.83-.83.83h-38.34c-.58,0-.83-.25-.83-.83v-7.05Z"/>
        <path class="cls-3" d="M775.64,458.28c13.69,0,23.65,11.87,23.65,28.13s-9.96,28.3-23.65,28.3-23.65-11.95-23.65-28.3,9.96-28.13,23.65-28.13ZM775.64,502.43c6.22,0,10.37-6.39,10.37-16.02s-4.15-15.85-10.37-15.85-10.37,6.31-10.37,15.85,4.15,16.02,10.37,16.02Z"/>
        <path class="cls-3" d="M817.06,506c0-16.76,26.31-20.91,26.31-30.46,0-2.9-2.41-4.81-6.06-4.81s-6.22,2.16-6.56,5.89c0,.58-.25.83-.83.83h-11.62c-.58,0-.83-.25-.83-.83.42-10.87,8.3-18.34,19.75-18.34s19.42,6.89,19.42,16.85c0,15.19-18.51,20.58-23.32,26.72h22.91c.58,0,.83.25.83.83v10.37c0,.58-.25.83-.83.83h-38.34c-.58,0-.83-.25-.83-.83v-7.05Z"/>
        <path class="cls-3" d="M907.86,470.31c-8.8,0-15.93,3.73-18.51,9.88,2.74-1.58,5.64-2.24,9.05-2.24,10.87,0,19.09,7.8,19.09,18.34s-9.05,18.42-21.08,18.42c-13.2,0-21.58-9.38-21.58-24.48,0-18.84,13.53-31.95,33.11-31.95h.66c.58,0,.83.25.83.83v10.37c0,.58-.25.83-.83.83h-.75ZM896.16,502.27c4.57,0,8.05-3.07,8.05-6.97s-3.49-6.97-8.05-6.97-8.05,3.07-8.05,6.97,3.49,6.97,8.05,6.97Z"/>
      </g>
      <path class="cls-3" d="M180.78,241.84c25.37,0,51.51-26.98,51.51-92.58,0-49.4-20.2-79.71-40.59-76.26-3.6.61-4.26,3.81-3.37,5.8,18.04,40.25,23.87,126.18-2.39,126.18-23.12,0-29.8-70.36-23.68-121.22.35-2.91-1.32-4.32-3.69-4.77-22.59-4.22-34.82,13.51-34.82,47.88,0,47.32,19.26,114.97,57.03,114.97Z"/>
      <path class="cls-3" d="M733.62,220.78c2.22.09,3.94-.85,4.53-3.36,14.64-63.47,38.43-159.03-11.37-160.93-2.95-.1-4.44,2.17-3.99,4.94,6.93,45.36-35,157.74,10.83,159.35Z"/>
      <path class="cls-3" d="M902.75,231.6c2.4.53,4.77-.98,5.26-3.36,11.32-56.57,50.1-157.24-8.86-162.16-3.29-.26-5.71,2.39-4.84,5.41,12.63,45.34-36.5,150.43,8.43,160.11Z"/>
      <path class="cls-3" d="M476.5,131.26c-1.34-47.72-25.33-74.93-62.74-73.23-37.45,1.74-55.48,45.35-52.6,90.67,2.88,45.35,29.61,75.1,60.15,73.7,31.79-1.47,56.68-37.36,55.2-91.14ZM423.76,197.86c-14.06.63-24.34-21.73-26.21-57.69-1.7-32.47,7.67-59.36,20.92-59.95,15.89-.71,23.42,23.08,24.76,57.89,1.33,34.82-5.41,59.12-19.47,59.75Z"/>
      <path class="cls-3" d="M1159.4,94.67c-16.45-2.26-33.5,5.73-48.4,29.66.08-21.65-6.96-37.18-28.6-37.63-3.16-.06-4.84,2.06-4.59,4.66,3.98,46.03-44.12,149.27,3.76,159.17,2.52.53,4.82-1.21,5.27-3.72,10.02-55.68,26.95-123.14,52.38-119.5,16.4,2.38,3.47,33.39-3.61,82.06-4.54,31.44-.08,58.77,33.98,52.32,3.39-.63,4.39-3.23,3.44-5.77-10.83-28.7,6.52-85.24,11.25-115.02,3.69-23.51.12-42.79-24.88-46.22Z"/>
      <path class="cls-3" d="M985.45,238.78c32.29,3.41,62.59-26.9,69.28-80.29,5.92-47.36-12.81-79.61-50.76-83.22-39.35-3.74-61.6,37.74-65.65,82.96-4.06,45.27,14.82,77.13,47.14,80.54ZM974.08,153.87c3.24-32.36,16.73-57.22,30.18-56.05,15.91,1.38,20.05,26.41,16.09,61.02-3.96,34.62-14.13,57.45-28.69,56.06-14.26-1.36-21.17-25.21-17.58-61.04Z"/>
      <path class="cls-3" d="M245.84,122.46c.26,27.48-.56,57.18,1,76.71,2.23,27.76,12.25,35.62,33.42,32.98,2.5-.31,4.23-2.68,3.73-5.16-2.56-12.66-3.71-34.92-4.52-59.11,18.51,38.39,41.64,74.81,65.94,72.24,12.23-1.29,19.66-8.94,25.33-23.8.93-2.44-.03-5.23-3.12-5.92-21.73-4.9-46.93-28.55-66.37-50.22,26.42-7.3,50.92-31.97,50.92-55.97s-14.07-40.13-52.08-40.13c-21.39,0-50.35,6.06-58.21,15.91-.97,1.21-1.22,2.81-.66,4.23,1.8,4.56,4.41,14.62,4.63,38.24ZM278.67,146.61c1-21.87,2.04-42.37-1.1-57.14,27.16-6.11,38.68,3.1,38.94,17.49.27,14.86-12.69,33.54-37.84,39.65Z"/>
      <path class="cls-3" d="M586.16,232.41c1.87,2.04,4.6,1.54,5.86-1.11,29.9-63.1,120.73-91.64,120.73-172.04,0-29.22-19.67-58.56-57.49-59.24-36-.65-68.31,22.54-71.68,60.08-1.01-23.77-16.6-34.73-34.58-34.73-35.37,0-64.34,31.93-62.88,79.98,2.43,75.57,75.08,99.38,100.04,127.06ZM579.74,78.21c.96,3.77,5.56,3.64,6.6-.09,15.57-56.44,87.17-62.61,87.17-5.46,0,45.12-79.97,93.26-86.06,136.09-14.47-28.1-67.62-43.53-67.62-104.61,0-51.98,50.54-62.9,59.91-25.93Z"/>
      <path class="cls-3" d="M813.41,224.54c36.76,0,59.59-25.51,59.51-53.74-.12-46.87-70.87-40.91-70.87-62.87,0-11.21,12.08-16.48,27.62-16.39,11.84.06,25.71,3.38,37.83,9.64,2.43,1.25,4.81.65,6.2-1.88,2.06-3.76,3.39-7.75,3.39-12,0-16.47-21.58-27.08-45.75-27.08-34.85,0-61.83,22-61.83,53.2,0,48.07,74.14,46.93,74.14,66.39,0,7.43-5.9,13.78-21.13,13.78s-33.83-6.33-48.3-17.92c-2.81-2.26-5.77-.96-6.93,1.89-11.33,27.86,8.21,46.97,46.13,46.98Z"/>
      <path class="cls-3" d="M111.76,194.71c-10.56,27.88-26.46,39.25-43.16,39.32-15.26.06-26.1-15.57-30.13-35.13,39.53,3.06,71.33-34.81,71.33-75.13,0-21.34-11.94-39.82-39.78-39.82C27.55,83.96,0,133.95,0,185.12c0,44.79,21.35,80.65,61.77,80.65s67.2-36.02,56.81-70.69c-1.08-3.59-5.51-3.81-6.82-.37ZM69.59,111.51c6.05,0,9.3,5.4,9.3,14.08,0,21.16-14.63,51.41-42.13,53.83.37-36.54,18.65-67.91,32.83-67.91Z"/>
      <path class="cls-3" d="M980.24,268.27c.04-1.89-1.45-3.19-3.43-3.22-19.5-.28-33.64.37-53.66-1.62-9.35-.93-12.99-2.01-17.04,7.83-10.89,29-13.99,62.62-14.39,86.27-.36,22.36,5.57,35.3,26.48,35.79,38.39.89,54.92-16.14,51.27-37.63-.44-2.55-3.53-3.31-5.48-1.67-12.12,10.24-23.73,14.55-32.53,14.11-13.18-.67-12.98-10.24-9.53-32.96,31.69,6.31,40.02-5.48,41.8-16.01.34-2-1.45-4.16-4.65-3.92-9.01.7-21.62-.29-32.8-1.28,2.91-14.12,4.47-21.66,4.53-28.75,18.45,3.27,48.88,8.78,49.42-16.94Z"/>
      <path class="cls-3" d="M892.85,257.87c-42.9,7.31-87.73-23.43-90.13,13.9-.17,2.64,1.39,4.15,3.82,4.25,10.33.43,18.69,2.13,26.93,3.82-10.78,52.93-18.43,112.07,16.25,112.64,2.43.05,4.31-2.18,3.94-4.59-3.02-19.43,3.01-68.26,7.04-104.2,21.81.54,33.72-4.5,36.76-21.26.58-3.21-1.64-5.04-4.6-4.56Z"/>
      <path class="cls-3" d="M1159.63,282.18c-42.06,5.09-86.06-21.95-87.56,13.47-.08,1.88,1.32,3.55,3.46,3.7,9.94.7,16.88,2.1,23.19,3.42-10.96,43.83-20.53,92.5,13.34,89.62,2.35-.19,4.15-2.19,3.76-4.13,2.3-19.57,4.44-54.33,8.12-82.28,19.6.26,36.03-7.63,39.87-20.09.63-2.04-1.53-4-4.18-3.72Z"/>
      <path class="cls-3" d="M629.68,241.15c-33.74-.04-54.29,40.15-53.98,81.89.3,41.78,23.12,69.24,51,69.28,29.03,0,54.4-30.72,55.33-79.8.81-43.55-19-71.33-52.34-71.37ZM651.14,316.01c-.36,31.95-8.26,53.93-21.06,53.9-12.81-.04-21.76-21.06-21.73-54.17.02-29.91,10.43-53.94,22.39-54.02,14.02-.09,20.76,22.35,20.41,54.29Z"/>
      <path class="cls-3" d="M327.6,288.49c-1.06-21.02-8.55-35.99-30.55-33.6-14.1,1.54-25.84,11.45-33.29,32.51-4.04-17.06-13.04-27.5-31.82-23.13-2.32.53-3.74,2.74-3.04,4.74,12.46,36.66-9.74,122.28,33.64,124.11,2.29.1,4.02-1.76,3.84-3.94-3.46-41.54,2.44-101.12,19.87-102.7,14.97-1.2,8.99,28.05,11.05,62.34,1.71,28.48,13.15,51.88,40.08,41.32,2.24-.88,3.16-3.59,1.82-5.62-15.13-22.89-10.29-69.48-11.6-96.04Z"/>
      <path class="cls-3" d="M792.41,285.93c.76-21.55-4.33-37.53-26.7-39.1-14.18-.99-27.86,7.8-37.27,29.46-2.44-18.82-10.36-33.95-29.5-32.12-2.36.23-3.99,2.45-3.48,4.77,8.93,41.71-23.62,139.37,19.88,143.18,2.3.2,4.2-1.73,4.23-4.08.41-45.04,11.92-110.77,31.77-109.69,16.72.85,7.13,29.94,6,66.79-.91,30.16,7.44,54.96,35.39,45.33,2.32-.79,3.49-3.49,2.33-5.63-13.11-24.21-3.62-71.52-2.65-98.91Z"/>
      <path class="cls-3" d="M530.91,269.28c8.02-.16,15.31,8.99,17.87,25.73.25,1.67,1.69,2.69,2.99,2.45,11.9-2.16,20.13-11.31,20.26-22.66.18-16.02-14.42-33.64-38.01-33.15-77.27,2.57-79.85,153.04-6.22,152.47,34.25-.21,46.46-24.23,39.45-36.83-1.33-2.38-3.23-1.91-4.87-.03-5.48,6.31-14.64,11.03-25.25,10.73-40.4-1.11-35.42-97.96-6.22-98.7Z"/>
      <path class="cls-3" d="M442.61,326.4c.13-5.39-1.62-9.94-9.52-9.94-3.78,0-9.52.92-17.41.92-8.43,0-11.7-.23-16.78-.23-3.61,0-5.56,3.09-5.59,7.65-.12,15.57,16.12,17.66,27.03,14.64-1.78,16.17-12.04,26.37-20.45,26.37-13.37,0-22.86-14.35-25.16-42.16-2.8-33.75,8.12-48.07,22.19-48.94,7.57-.45,14.82,5.64,18.13,20.82.33,1.51,1.72,2.28,2.95,2.04,11.66-2.25,20.92-10.06,20.92-22.39,0-15.27-15.82-29.07-38.78-27.51-39.24,2.88-62.3,43.57-58.36,86.16,3.66,40.14,23.33,59.16,49.49,58.66,11.16-.24,22.79-7.63,28.75-18.08,1.6,11.62,8.4,19.82,21.65,17.23,1.9-.37,3.17-1.96,3-3.97-1.29-15.19-2.54-42.67-2.07-61.28Z"/>
      <path class="cls-3" d="M1030.9,266.97c-28.54-.23-47.3,17.18-47.3,43.04,0,18.78,15.43,26.71,29.61,32.19,12.04,4.65,23.17,7.92,23.17,15.14,0,15.73-29.76,13.7-49.29-3.26-1.81-1.58-4.62-.88-5.44,1.4-8.6,24.02,9.67,37.72,34.95,37.72,31.82,0,45.65-21.85,45.65-42.44,0-18.04-11.37-24.35-29.25-30.05-11.33-3.61-21.63-6.75-21.63-13.64,0-9.04,8.81-13.91,19.62-13.91,8.71,0,18.33,2.34,27.31,7.39,1.69.95,3.83.29,4.71-1.46,1.83-3.62,2.61-7.02,2.61-10.15,0-13.93-16.64-21.83-34.73-21.97Z"/>
      <path class="cls-3" d="M168.47,266.42c-31.57,1.8-47.33,36.57-45.15,71.51,2.19,35.03,25.16,56.95,52.1,55.41,28.06-1.6,49.49-28.99,47.31-70.48-1.94-36.84-22.69-58.23-54.26-56.44ZM175.85,372.84c-12.32.7-21.24-14.96-22.78-42.73-1.39-25.08,6.61-45.26,17.85-45.9,13.48-.77,19.96,16.62,21.53,43.66,1.56,26.87-4.28,44.27-16.6,44.97Z"/>
      <path class="cls-3" d="M83.76,323.37c-13.18-2.07-24.07-2.25-24.07-10.97,0-8.15,10.85-13.1,22.96-13.1,7.26,0,15.31.99,22.65,3.69,1.78.66,3.79-.24,4.44-1.99,6.73-18.15-11.19-25.91-32.93-24.29-25.48,1.9-45.96,18.04-44.82,39.75.82,15.65,10.23,25.57,31.66,30.08,13.89,2.92,27.19,3.19,27.73,10.48,1.1,14.71-27.46,16.83-48.79,3.69-1.98-1.22-4.65-.19-5.16,2.03-4.2,18.27,9.64,30.94,31.65,30.94,23.43,0,48.3-10.87,48.3-40.22,0-23.43-15.77-27.31-33.61-30.12Z"/>
      <path class="cls-1" d="M579.74,78.21c.96,3.77,5.56,3.64,6.6-.09,15.57-56.44,87.17-62.61,87.17-5.46,0,45.12-79.97,93.26-86.06,136.09-14.47-28.1-67.62-43.53-67.62-104.61,0-51.98,50.54-62.9,59.91-25.93Z"/>
      <path class="cls-1" d="M579.74,78.21c.96,3.77,5.56,3.64,6.6-.09,15.57-56.44,87.17-62.61,87.17-5.46,0,45.12-79.97,93.26-86.06,136.09-14.47-28.1-67.62-43.53-67.62-104.61,0-51.98,50.54-62.9,59.91-25.93Z"/>
    </g>
  </g>
</svg>